<svg preserveAspectRatio="none" width="100%" height="100%" overflow="visible" style="display: block;" viewBox="0 0 8 8" fill="none" xmlns="http://www.w3.org/2000/svg">
<g id="CaretDown">
<path id="Vector" d="M6.7653 3.26529L4.2653 5.76529C4.23046 5.80025 4.18906 5.82798 4.14348 5.84691C4.0979 5.86584 4.04903 5.87558 3.99967 5.87558C3.95032 5.87558 3.90145 5.86584 3.85587 5.84691C3.81029 5.82798 3.76889 5.80025 3.73405 5.76529L1.23405 3.26529C1.1636 3.19484 1.12402 3.09929 1.12402 2.99966C1.12402 2.90003 1.1636 2.80448 1.23405 2.73404C1.3045 2.66359 1.40005 2.62401 1.49967 2.62401C1.5993 2.62401 1.69485 2.66359 1.7653 2.73404L3.99999 4.96872L6.23467 2.73372C6.30512 2.66328 6.40067 2.6237 6.5003 2.6237C6.59993 2.6237 6.69548 2.66328 6.76592 2.73372C6.83637 2.80417 6.87595 2.89972 6.87595 2.99935C6.87595 3.09898 6.83637 3.19453 6.76592 3.26497L6.7653 3.26529Z" fill="var(--fill-0, #636066)"/>
</g>
</svg>
