<svg preserveAspectRatio="none" width="100%" height="100%" overflow="visible" style="display: block;" viewBox="0 0 20 20" fill="none" xmlns="http://www.w3.org/2000/svg">
<g id="vuesax/bold/direct-up">
<path id="Vector" d="M14.1833 17.7417L11.2833 16.2917C10.475 15.8917 9.53333 15.8917 8.725 16.2917L5.825 17.7417C3.33333 18.9833 0.708334 16.3083 2.00833 13.85L2.69167 12.5667C2.78333 12.3917 2.93333 12.25 3.11667 12.1667L13.65 7.41667C14.0833 7.225 14.5917 7.4 14.8083 7.81667L17.9833 13.85C19.2833 16.3083 16.6667 18.9833 14.1833 17.7417Z" fill="var(--fill-0, #6D09F9)"/>
<path id="Vector_2" d="M13 6.40833L6.1 9.51667C5.325 9.86667 4.54167 9.03333 4.94167 8.28333L7.475 3.475C8.55 1.43333 11.4667 1.43333 12.5417 3.475L13.4333 5.175C13.6667 5.63333 13.4667 6.2 13 6.40833Z" fill="var(--fill-0, #6D09F9)"/>
<g id="Vector_3" opacity="0">
</g>
<g id="Vector_4" opacity="0">
</g>
</g>
</svg>
