<svg preserveAspectRatio="none" width="100%" height="100%" overflow="visible" style="display: block;" viewBox="0 0 37.3333 37.3333" fill="none" xmlns="http://www.w3.org/2000/svg">
<g id="profile">
<path id="Vector" d="M18.9156 16.9089C18.76 16.8933 18.5733 16.8933 18.4022 16.9089C14.7 16.7844 11.76 13.7511 11.76 10.0178C11.76 6.20667 14.84 3.11111 18.6667 3.11111C22.4778 3.11111 25.5733 6.20667 25.5733 10.0178C25.5578 13.7511 22.6178 16.7844 18.9156 16.9089Z" stroke="var(--stroke-0, #636066)" stroke-width="2.33333" stroke-linecap="round" stroke-linejoin="round"/>
<path id="Vector_2" d="M11.1378 22.6489C7.37333 25.1689 7.37333 29.2756 11.1378 31.78C15.4156 34.6422 22.4311 34.6422 26.7089 31.78C30.4733 29.26 30.4733 25.1533 26.7089 22.6489C22.4467 19.8022 15.4311 19.8022 11.1378 22.6489Z" stroke="var(--stroke-0, #636066)" stroke-width="2.33333" stroke-linecap="round" stroke-linejoin="round"/>
<g id="Vector_3" opacity="0">
</g>
</g>
</svg>
