<svg preserveAspectRatio="none" width="100%" height="100%" overflow="visible" style="display: block;" viewBox="0 0 24 24" fill="none" xmlns="http://www.w3.org/2000/svg">
<g id="google_symbol.svg">
<path id="Vector" d="M22.5599 12.2499C22.5599 11.4699 22.4899 10.7199 22.3599 9.99993H11.9999V14.2549H17.9199C17.6649 15.6299 16.8899 16.7949 15.7249 17.5749V20.3349H19.2799C21.3599 18.4199 22.5599 15.5999 22.5599 12.2499Z" fill="var(--fill-0, #4285F4)"/>
<path id="Vector_2" d="M12.0019 22.9998C14.9719 22.9998 17.4619 22.0148 19.2819 20.3348L15.7269 17.5748C14.7419 18.2348 13.4819 18.6248 12.0019 18.6248C9.13687 18.6248 6.71187 16.6898 5.84687 14.0898H2.17188V16.9398C3.98187 20.5348 7.70187 22.9998 12.0019 22.9998Z" fill="var(--fill-0, #34A853)"/>
<path id="Vector_3" d="M5.845 14.09C5.625 13.43 5.5 12.725 5.5 12C5.5 11.275 5.625 10.57 5.845 9.90999V7.05999H2.17C1.4 8.59285 0.999321 10.2846 1 12C1 13.775 1.425 15.455 2.17 16.94L5.845 14.09Z" fill="var(--fill-0, #FBBC05)"/>
<path id="Vector_4" d="M12.0019 5.37488C13.6169 5.37488 15.0669 5.92988 16.2069 7.01988L19.3619 3.86488C17.4569 2.08988 14.9669 0.999878 12.0019 0.999878C7.70187 0.999878 3.98187 3.46488 2.17188 7.05988L5.84687 9.90988C6.71187 7.30988 9.13687 5.37488 12.0019 5.37488Z" fill="var(--fill-0, #EA4335)"/>
<g id="Vector_5">
</g>
</g>
</svg>
