<svg preserveAspectRatio="none" width="100%" height="100%" overflow="visible" style="display: block;" viewBox="0 0 80 80" fill="none" xmlns="http://www.w3.org/2000/svg">
<g id="Group 2382">
<circle id="Ellipse 357" cx="40" cy="40" r="40" fill="var(--fill-0, #F4F1FF)"/>
<g id="re-enter-pincode">
<path id="Vector" d="M25.3724 20.5C22.0899 20.5 19.4141 23.1758 19.4141 26.4583V38.375C19.4141 41.6575 22.0899 44.3333 25.3724 44.3333H40.0524C42.5549 40.4225 46.9307 37.8333 51.9141 37.8333C55.0016 37.8333 57.8625 38.8305 60.1808 40.5205C60.4408 39.8597 60.5807 39.1333 60.5807 38.375V26.4583C60.5807 23.1758 57.9049 20.5 54.6224 20.5H25.3724ZM29.1641 30.25C30.3557 30.25 31.3307 31.225 31.3307 32.4167C31.3307 33.6083 30.3557 34.5833 29.1641 34.5833C27.9724 34.5833 26.9974 33.6083 26.9974 32.4167C26.9974 31.225 27.9724 30.25 29.1641 30.25ZM39.9974 30.25C41.1891 30.25 42.1641 31.225 42.1641 32.4167C42.1641 33.6083 41.1891 34.5833 39.9974 34.5833C38.8057 34.5833 37.8307 33.6083 37.8307 32.4167C37.8307 31.225 38.8057 30.25 39.9974 30.25ZM50.8307 30.25C52.0224 30.25 52.9974 31.225 52.9974 32.4167C52.9974 33.6083 52.0224 34.5833 50.8307 34.5833C49.6391 34.5833 48.6641 33.6083 48.6641 32.4167C48.6641 31.225 49.6391 30.25 50.8307 30.25ZM51.9141 40C45.3328 40 39.9974 45.3354 39.9974 51.9167C39.9974 58.4979 45.3328 63.8333 51.9141 63.8333C58.4953 63.8333 63.8307 58.4979 63.8307 51.9167C63.8307 45.3354 58.4953 40 51.9141 40ZM51.9141 44.3333C53.9984 44.3333 55.9321 45.2053 57.3307 46.6396V45.4167C57.3307 44.8187 57.815 44.3333 58.4141 44.3333C59.0131 44.3333 59.4974 44.8187 59.4974 45.4167V49.75C59.4974 50.348 59.0131 50.8333 58.4141 50.8333H54.0807C53.4816 50.8333 52.9974 50.348 52.9974 49.75C52.9974 49.152 53.4816 48.6667 54.0807 48.6667H56.2051C55.203 47.3363 53.6355 46.5 51.9141 46.5C48.9273 46.5 46.4974 48.9299 46.4974 51.9167C46.4974 54.9034 48.9273 57.3333 51.9141 57.3333C54.1999 57.3333 56.2506 55.8827 57.0155 53.7236C57.2148 53.1592 57.8327 52.8631 58.3971 53.0635C58.9615 53.2639 59.2577 53.8818 59.0573 54.4452C57.988 57.4687 55.1164 59.5 51.9141 59.5C47.7335 59.5 44.3307 56.0983 44.3307 51.9167C44.3307 47.735 47.7335 44.3333 51.9141 44.3333Z" fill="var(--fill-0, #6D09F9)"/>
</g>
</g>
</svg>
