<svg preserveAspectRatio="none" width="100%" height="100%" overflow="visible" style="display: block;" viewBox="0 0 37.3333 37.3333" fill="none" xmlns="http://www.w3.org/2000/svg">
<g id="buildings">
<path id="Vector" d="M20.2222 34.2222H7.77778C4.66667 34.2222 3.11111 32.6667 3.11111 29.5556V17.1111C3.11111 14 4.66667 12.4444 7.77778 12.4444H15.5556V29.5556C15.5556 32.6667 17.1111 34.2222 20.2222 34.2222Z" stroke="var(--stroke-0, #636066)" stroke-width="2.33333" stroke-miterlimit="10" stroke-linecap="round" stroke-linejoin="round"/>
<path id="Vector_2" d="M15.7266 6.22222C15.6022 6.68889 15.5556 7.20222 15.5556 7.77778V12.4444H7.77778V9.33333C7.77778 7.62222 9.17778 6.22222 10.8889 6.22222H15.7266Z" stroke="var(--stroke-0, #636066)" stroke-width="2.33333" stroke-miterlimit="10" stroke-linecap="round" stroke-linejoin="round"/>
<path id="Vector_3" d="M21.7778 12.4444V20.2222" stroke="var(--stroke-0, #636066)" stroke-width="2.33333" stroke-miterlimit="10" stroke-linecap="round" stroke-linejoin="round"/>
<path id="Vector_4" d="M28 12.4444V20.2222" stroke="var(--stroke-0, #636066)" stroke-width="2.33333" stroke-miterlimit="10" stroke-linecap="round" stroke-linejoin="round"/>
<path id="Vector_5" d="M26.4444 26.4444H23.3333C22.4778 26.4444 21.7778 27.1444 21.7778 28V34.2222H28V28C28 27.1444 27.3 26.4444 26.4444 26.4444Z" stroke="var(--stroke-0, #636066)" stroke-width="2.33333" stroke-miterlimit="10" stroke-linecap="round" stroke-linejoin="round"/>
<path id="Vector_6" d="M9.33333 20.2222V26.4444" stroke="var(--stroke-0, #636066)" stroke-width="2.33333" stroke-miterlimit="10" stroke-linecap="round" stroke-linejoin="round"/>
<path id="Vector_7" d="M15.5556 29.5556V7.77778C15.5556 4.66667 17.1111 3.11111 20.2222 3.11111H29.5556C32.6667 3.11111 34.2222 4.66667 34.2222 7.77778V29.5556C34.2222 32.6667 32.6667 34.2222 29.5556 34.2222H20.2222C17.1111 34.2222 15.5556 32.6667 15.5556 29.5556Z" stroke="var(--stroke-0, #636066)" stroke-width="2.33333" stroke-miterlimit="10" stroke-linecap="round" stroke-linejoin="round"/>
<g id="Vector_8" opacity="0">
</g>
</g>
</svg>
