<svg preserveAspectRatio="none" width="100%" height="100%" overflow="visible" style="display: block;" viewBox="0 0 80 80" fill="none" xmlns="http://www.w3.org/2000/svg">
<g id="Group 2382">
<circle id="Ellipse 357" cx="40" cy="40" r="40" fill="var(--fill-0, #F4F1FF)"/>
<g id="forgot-password 1">
<path id="Vector" d="M39.9974 14C34.0338 14 29.1641 18.8698 29.1641 24.8333V29.1667H26.4557C24.3812 29.1667 22.6641 30.8838 22.6641 32.9583V57.875C22.6641 59.9495 24.3812 61.6667 26.4557 61.6667H53.5391C55.6136 61.6667 57.3307 59.9495 57.3307 57.875V32.9583C57.3307 30.8838 55.6136 29.1667 53.5391 29.1667H50.8307V24.8333C50.8307 18.8698 45.961 14 39.9974 14ZM39.9974 17.25C44.2042 17.25 47.5807 20.6266 47.5807 24.8333V29.1667H32.4141V24.8333C32.4141 20.6266 35.7906 17.25 39.9974 17.25ZM40.0588 35.6688C40.4296 35.6737 40.8043 35.7145 41.1781 35.7957C43.2039 36.2291 44.8065 37.8115 45.2723 39.8265C45.8465 42.3615 44.6223 44.8959 42.2931 45.9901C41.8815 46.1851 41.6224 46.5975 41.6224 47.0417C41.6224 47.9408 40.8966 48.6667 39.9974 48.6667C39.0982 48.6667 38.3724 47.9408 38.3724 47.0417C38.3724 45.3408 39.3686 43.7706 40.9178 43.0448C41.6761 42.6873 42.3801 41.7547 42.0985 40.5522C41.9251 39.7831 41.2659 39.1342 40.4967 38.9717C39.8792 38.8417 39.2706 38.9487 38.7723 39.2954C38.2848 39.6312 37.9494 40.1619 37.8519 40.7469C37.7219 41.6352 36.8888 42.2419 36.0005 42.1011C35.1122 41.9711 34.5055 41.138 34.6463 40.2497C34.8738 38.7872 35.7073 37.4659 36.9315 36.6209C37.8659 35.9791 38.9461 35.6541 40.0588 35.6688ZM39.9974 50.8333C41.1891 50.8333 42.1641 51.8083 42.1641 53C42.1641 54.1917 41.1891 55.1667 39.9974 55.1667C38.8057 55.1667 37.8307 54.1917 37.8307 53C37.8307 51.8083 38.8057 50.8333 39.9974 50.8333Z" fill="var(--fill-0, #6D09F9)"/>
</g>
</g>
</svg>
