<svg preserveAspectRatio="xMidYMid meet" width="260.089" height="56" overflow="visible" style="display: block;" viewBox="0 0 260.089 56" fill="none" xmlns="http://www.w3.org/2000/svg">
<g id="8-medical-logo-white 1" clip-path="url(#clip0_0_1078)">
<path id="Vector" d="M55.621 38.5126V32.6226H65.2757V27.856H55.621V22.2697H66.2168V17.4424H50.5508V43.3095H66.399V38.4822H55.621V38.5126Z" fill="var(--fill-0, white)"/>
<path id="Vector_2" d="M69.069 25.1541V43.3097H73.7445V25.1541H69.069ZM71.4068 16.5317C69.828 16.5317 68.4922 17.8675 68.4922 19.4464C68.4922 21.0251 69.828 22.361 71.4068 22.361C72.9855 22.361 74.3214 21.0251 74.3214 19.4464C74.3214 17.8675 72.9855 16.5317 71.4068 16.5317Z" fill="var(--fill-0, white)"/>
<path id="Vector_3" d="M91.5376 25.1544V28.1298L90.5357 26.885C89.3212 25.367 87.5604 24.5776 85.344 24.5776C80.3345 24.5776 76.418 28.6458 76.418 33.8072C76.418 38.9685 80.3345 43.0367 85.344 43.0367C87.5604 43.0367 89.3212 42.2777 90.5357 40.7294L91.5376 39.4846V42.8243C91.5376 45.7996 89.7463 47.4998 86.6192 47.4998C83.9778 47.4998 82.7634 46.4068 82.0348 45.2835L78.0575 47.5605C79.7273 50.0804 82.6723 51.477 86.437 51.477C90.8696 51.477 96.0613 49.2 96.0613 42.8243V25.1544H91.5376ZM86.3155 38.8774C83.2491 38.8774 81.0936 36.8129 81.0936 33.8375C81.0936 30.8622 83.2491 28.7977 86.3155 28.7977C89.382 28.7977 91.5376 30.8622 91.5376 33.8375C91.5376 36.8129 89.382 38.8774 86.3155 38.8774Z" fill="var(--fill-0, white)"/>
<path id="Vector_4" d="M110.392 24.6074C108.176 24.6074 106.324 25.3969 105.322 26.7327L104.32 28.1293V17.4424H99.6445V43.3095H104.32V33.3512C104.32 30.5277 105.868 28.8276 108.479 28.8276C110.848 28.8276 112.396 30.4366 112.396 32.8959V43.3399H117.071V32.0458C117.071 26.9148 113.732 24.6074 110.392 24.6074Z" fill="var(--fill-0, white)"/>
<path id="Vector_5" d="M130.612 29.5869V25.1543H126.635V19.9626L121.96 21.3593V25.1543H118.863V29.5869H121.96V36.9646C121.96 39.4845 122.476 41.1239 123.539 42.0955C124.844 43.2492 127.091 43.6743 130.583 43.3706V39.2112C128.974 39.2719 127.881 39.1506 127.213 38.5433C126.818 38.1791 126.605 37.6325 126.605 36.9646V29.5869H130.612Z" fill="var(--fill-0, white)"/>
<path id="Vector_6" d="M154.415 17.4424L146.764 29.9509L139.113 17.4424H133.801V43.3095H138.84V26.2166L146.703 39.0894H146.764L154.628 26.2166V43.3399H159.668V17.4424H154.415Z" fill="var(--fill-0, white)"/>
<path id="Vector_7" d="M181.495 34.2322C181.495 28.7369 177.518 24.6079 172.266 24.6079C166.649 24.6079 162.551 28.6458 162.551 34.2322C162.551 39.9096 166.71 43.8565 172.691 43.8565C175.94 43.8565 178.49 42.7635 180.28 40.6079L176.577 38.4826C175.636 39.3327 174.239 39.8185 172.781 39.8185C170.11 39.8185 168.38 38.7862 167.621 36.7521L167.347 35.9931H181.374C181.465 35.4465 181.495 34.8394 181.495 34.2322ZM167.287 32.8052L167.469 32.1069C168.076 29.8906 169.776 28.6458 172.205 28.6458C174.542 28.6458 176.212 29.8906 176.82 32.1069L177.003 32.8052H167.287Z" fill="var(--fill-0, white)"/>
<path id="Vector_8" d="M197.981 17.4423V27.9166L197.009 26.7933C195.765 25.3664 193.973 24.6377 191.695 24.6377C186.838 24.6377 183.043 28.8578 183.043 34.2621C183.043 39.6662 186.838 43.8864 191.695 43.8864C193.973 43.8864 195.765 43.1576 197.009 41.7307L197.981 40.6074V43.3398H202.656V17.4423H197.981ZM192.819 39.5144C189.783 39.5144 187.658 37.3587 187.658 34.2621C187.658 31.1653 189.783 29.0096 192.819 29.0096C195.856 29.0096 197.981 31.1653 197.981 34.2621C197.981 37.3587 195.856 39.5144 192.819 39.5144Z" fill="var(--fill-0, white)"/>
<path id="Vector_9" d="M206.268 25.1541V43.3097H210.943V25.1541H206.268ZM208.606 16.5317C207.027 16.5317 205.691 17.8675 205.691 19.4464C205.691 21.0251 207.027 22.361 208.606 22.361C210.184 22.361 211.52 21.0251 211.52 19.4464C211.52 17.8675 210.184 16.5317 208.606 16.5317Z" fill="var(--fill-0, white)"/>
<path id="Vector_10" d="M227.127 37.329C226.307 38.5434 224.849 39.272 223.179 39.272C220.326 39.272 218.261 37.1469 218.261 34.2323C218.261 31.3177 220.326 29.1924 223.179 29.1924C224.849 29.1924 226.307 29.921 227.127 31.1355L231.195 28.7673C229.525 26.1867 226.519 24.5776 223.24 24.5776C217.745 24.5776 213.586 28.7066 213.586 34.2019C213.586 39.6971 217.745 43.8262 223.24 43.8262C226.519 43.8262 229.525 42.217 231.195 39.606L227.127 37.329Z" fill="var(--fill-0, white)"/>
<path id="Vector_11" d="M246.71 25.1543V27.8868L245.739 26.7634C244.494 25.3365 242.702 24.6079 240.426 24.6079C235.568 24.6079 231.773 28.8279 231.773 34.2322C231.773 39.6363 235.568 43.8565 240.426 43.8565C242.702 43.8565 244.494 43.1277 245.739 41.7009L246.71 40.5775V43.3099H251.386V25.1543H246.71ZM241.58 39.5149C238.543 39.5149 236.418 37.3592 236.418 34.2626C236.418 31.1658 238.543 29.0101 241.58 29.0101C244.615 29.0101 246.74 31.1658 246.74 34.2626C246.71 37.3592 244.615 39.5149 241.58 39.5149Z" fill="var(--fill-0, white)"/>
<path id="Vector_12" d="M255.027 16.2891V43.3403H259.703V16.2891H255.027Z" fill="var(--fill-0, white)"/>
<path id="Vector_13" d="M19.6737 29.3135L11.1727 20.8125C6.40613 16.0459 6.40613 8.27363 11.1727 3.50704C15.8482 -1.16849 23.4991 -1.16849 28.1746 3.50704L28.3568 3.6892C30.6035 5.93588 31.8787 8.97193 31.8787 12.1598C31.8787 15.3476 30.6035 18.3533 28.3264 20.6304L19.6737 29.3135ZM19.6737 4.75182C17.8217 4.75182 15.9393 5.45011 14.5428 6.87705C11.6281 9.79167 11.6281 14.5279 14.5428 17.4425L19.6737 22.5735L24.9868 17.2603C26.353 15.8942 27.112 14.0724 27.112 12.1598C27.112 10.2471 26.353 8.42544 24.9868 7.05921L24.8046 6.87705C23.3776 5.45011 21.5256 4.75182 19.6737 4.75182Z" fill="var(--fill-0, #6D09F9)"/>
<path id="Vector_14" d="M19.6736 56.0002C14.6641 56.0002 9.62426 54.0875 5.8292 50.2621C2.0645 46.5278 -2.44141e-05 41.579 -2.44141e-05 36.2658C-2.44141e-05 30.9832 2.0645 26.004 5.79884 22.2393L19.6433 8.39492L23.0132 11.7649L19.6736 15.1349L9.16886 25.6397C3.30928 31.4992 3.30928 41.0628 9.16886 46.9224C14.9374 52.6909 24.3492 52.6909 30.148 46.9224L30.2087 46.8617C36.038 41.0324 36.038 31.5296 30.2087 25.7004L25.0474 20.5392L28.4175 17.1691L33.5787 22.3304C41.2599 30.0116 41.2599 42.5505 33.5787 50.2317L33.518 50.2925C29.6925 54.1179 24.683 56.0002 19.6736 56.0002Z" fill="var(--fill-0, #6D09F9)"/>
<path id="Vector_15" d="M19.6736 45.9815C17.093 45.9815 14.6641 44.9796 12.8425 43.158C9.04741 39.3629 9.04741 33.1695 12.8425 29.3744L16.2125 32.7444C14.2695 34.6874 14.2695 37.845 16.2125 39.788C17.1233 40.6989 18.368 41.2149 19.6736 41.2149C20.9791 41.2149 22.1936 40.6989 23.1348 39.788C25.0778 37.845 25.0778 34.6874 23.1651 32.7747L26.5351 29.4048C30.3301 33.1998 30.3301 39.3326 26.5351 43.1276C24.6527 44.9796 22.2238 45.9815 19.6736 45.9815Z" fill="var(--fill-0, #6D09F9)"/>
<path id="Vector_16" d="M21.3354 24.2378L17.9648 27.6082L23.1172 32.7605L26.4877 29.39L21.3354 24.2378Z" fill="var(--fill-0, #6D09F9)"/>
<path id="Vector_17" d="M17.9668 24.2646L12.8359 29.3955L16.2065 32.7659L21.3372 27.6351L17.9668 24.2646Z" fill="var(--fill-0, #6D09F9)"/>
</g>
<defs>
<clipPath id="clip0_0_1078">
<rect width="260.089" height="56" fill="white"/>
</clipPath>
</defs>
</svg>
