<svg preserveAspectRatio="xMidYMid meet" width="185.778" height="40" overflow="visible" style="display: block;" viewBox="0 0 185.778 40" fill="none" xmlns="http://www.w3.org/2000/svg">
<g id="8-medical-logo-white 1" clip-path="url(#clip0_0_1006)">
<path id="Vector" d="M39.7271 27.5088V23.3016H46.6232V19.8969H39.7271V15.9067H47.2955V12.4586H36.1055V30.9352H47.4256V27.4871H39.7271V27.5088Z" fill="var(--fill-0, black)"/>
<path id="Vector_2" d="M49.3339 17.9669V30.9352H52.6735V17.9669H49.3339ZM51.0037 11.8081C49.876 11.8081 48.9219 12.7622 48.9219 13.89C48.9219 15.0176 49.876 15.9718 51.0037 15.9718C52.1314 15.9718 53.0856 15.0176 53.0856 13.89C53.0856 12.7622 52.1314 11.8081 51.0037 11.8081Z" fill="var(--fill-0, black)"/>
<path id="Vector_3" d="M65.3857 17.9669V20.0922L64.67 19.203C63.8026 18.1188 62.5448 17.5549 60.9617 17.5549C57.3834 17.5549 54.5859 20.4608 54.5859 24.1475C54.5859 27.8341 57.3834 30.74 60.9617 30.74C62.5448 30.74 63.8026 30.1979 64.67 29.0919L65.3857 28.2028V30.5883C65.3857 32.7135 64.1062 33.9279 61.8725 33.9279C59.9859 33.9279 59.1184 33.1472 58.5979 32.3448L55.757 33.9713C56.9498 35.7712 59.0533 36.7688 61.7424 36.7688C64.9085 36.7688 68.6169 35.1423 68.6169 30.5883V17.9669H65.3857ZM61.6556 27.7691C59.4653 27.7691 57.9257 26.2944 57.9257 24.1692C57.9257 22.0439 59.4653 20.5692 61.6556 20.5692C63.8459 20.5692 65.3857 22.0439 65.3857 24.1692C65.3857 26.2944 63.8459 27.7691 61.6556 27.7691Z" fill="var(--fill-0, black)"/>
<path id="Vector_4" d="M78.8488 17.5766C77.2657 17.5766 75.9428 18.1405 75.2272 19.0947L74.5115 20.0923V12.4587H71.1719V30.9353H74.5115V23.8222C74.5115 21.8054 75.6176 20.591 77.4825 20.591C79.174 20.591 80.2801 21.7403 80.2801 23.497V30.957H83.6197V22.8898C83.6197 19.2248 81.2343 17.5766 78.8488 17.5766Z" fill="var(--fill-0, black)"/>
<path id="Vector_5" d="M93.2907 21.133V17.9669H90.4498V14.2585L87.1104 15.2561V17.9669H84.8984V21.133H87.1104V26.4028C87.1104 28.2027 87.4791 29.3737 88.2381 30.0677C89.1707 30.8918 90.7751 31.1954 93.2694 30.9785V28.0075C92.12 28.0509 91.3396 27.9642 90.8623 27.5305C90.5805 27.2703 90.4285 26.8799 90.4285 26.4028V21.133H93.2907Z" fill="var(--fill-0, black)"/>
<path id="Vector_6" d="M110.295 12.4587L104.83 21.3934L99.365 12.4587H95.5703V30.9353H99.1694V18.726L104.786 27.9209H104.83L110.447 18.726V30.957H114.047V12.4587H110.295Z" fill="var(--fill-0, black)"/>
<path id="Vector_7" d="M129.641 24.4511C129.641 20.5259 126.8 17.5767 123.049 17.5767C119.036 17.5767 116.109 20.4608 116.109 24.4511C116.109 28.5064 119.08 31.3256 123.352 31.3256C125.673 31.3256 127.494 30.5449 128.773 29.0052L126.128 27.4871C125.456 28.0943 124.458 28.4414 123.417 28.4414C121.508 28.4414 120.273 27.704 119.731 26.2511L119.535 25.7089H129.555C129.62 25.3185 129.641 24.8848 129.641 24.4511ZM119.492 23.4319L119.622 22.9331C120.056 21.35 121.27 20.4608 123.005 20.4608C124.675 20.4608 125.868 21.35 126.301 22.9331L126.432 23.4319H119.492Z" fill="var(--fill-0, black)"/>
<path id="Vector_8" d="M141.412 12.4587V19.9404L140.718 19.138C139.829 18.1188 138.549 17.5983 136.923 17.5983C133.453 17.5983 130.742 20.6127 130.742 24.4729C130.742 28.333 133.453 31.3474 136.923 31.3474C138.549 31.3474 139.829 30.8268 140.718 29.8076L141.412 29.0052V30.957H144.752V12.4587H141.412ZM137.725 28.2245C135.556 28.2245 134.039 26.6848 134.039 24.4729C134.039 22.2609 135.556 20.7211 137.725 20.7211C139.894 20.7211 141.412 22.2609 141.412 24.4729C141.412 26.6848 139.894 28.2245 137.725 28.2245Z" fill="var(--fill-0, black)"/>
<path id="Vector_9" d="M147.333 17.9669V30.9352H150.673V17.9669H147.333ZM149.004 11.8081C147.876 11.8081 146.922 12.7622 146.922 13.89C146.922 15.0176 147.876 15.9718 149.004 15.9718C150.131 15.9718 151.085 15.0176 151.085 13.89C151.085 12.7622 150.131 11.8081 149.004 11.8081Z" fill="var(--fill-0, black)"/>
<path id="Vector_10" d="M162.234 26.663C161.649 27.5305 160.608 28.0509 159.415 28.0509C157.377 28.0509 155.902 26.533 155.902 24.4511C155.902 22.3692 157.377 20.8512 159.415 20.8512C160.608 20.8512 161.649 21.3716 162.234 22.2391L165.14 20.5476C163.947 18.7043 161.801 17.5549 159.458 17.5549C155.533 17.5549 152.562 20.5042 152.562 24.4294C152.562 28.3546 155.533 31.3039 159.458 31.3039C161.801 31.3039 163.947 30.1545 165.14 28.2895L162.234 26.663Z" fill="var(--fill-0, black)"/>
<path id="Vector_11" d="M176.224 17.967V19.9187L175.53 19.1163C174.641 18.0971 173.361 17.5767 171.735 17.5767C168.265 17.5767 165.555 20.591 165.555 24.4511C165.555 28.3112 168.265 31.3256 171.735 31.3256C173.361 31.3256 174.641 30.8051 175.53 29.7859L176.224 28.9835V30.9352H179.564V17.967H176.224ZM172.559 28.2245C170.39 28.2245 168.872 26.6847 168.872 24.4728C168.872 22.2608 170.39 20.7211 172.559 20.7211C174.727 20.7211 176.245 22.2608 176.245 24.4728C176.224 26.6847 174.727 28.2245 172.559 28.2245Z" fill="var(--fill-0, black)"/>
<path id="Vector_12" d="M182.164 11.6345V30.9568H185.504V11.6345H182.164Z" fill="var(--fill-0, black)"/>
<path id="Vector_13" d="M14.0553 20.938L7.98323 14.8658C4.57851 11.4611 4.57851 5.90946 7.98323 2.50475C11.3229 -0.834915 16.7878 -0.834915 20.1274 2.50475L20.2575 2.63486C21.8623 4.23963 22.7732 6.40824 22.7732 8.68528C22.7732 10.9623 21.8623 13.1092 20.2359 14.7357L14.0553 20.938ZM14.0553 3.39387C12.7325 3.39387 11.3879 3.89266 10.3904 4.9119C8.30852 6.99377 8.30852 10.3768 10.3904 12.4587L14.0553 16.1236L17.8504 12.3285C18.8262 11.3527 19.3684 10.0515 19.3684 8.68528C19.3684 7.31906 18.8262 6.01789 17.8504 5.04202L17.7203 4.9119C16.701 3.89266 15.3782 3.39387 14.0553 3.39387Z" fill="var(--fill-0, #6D09F9)"/>
<path id="Vector_14" d="M14.0526 40C10.4744 40 6.87446 38.6338 4.16371 35.9014C1.47463 33.234 -2.71267e-05 29.6991 -2.71267e-05 25.904C-2.71267e-05 22.1307 1.47463 18.5742 4.14202 15.8851L14.0309 5.99624L16.438 8.4034L14.0526 10.8105L6.54917 18.3139C2.36376 22.4993 2.36376 29.3304 6.54917 33.5159C10.6696 37.6362 17.3922 37.6362 21.5343 33.5159L21.5777 33.4725C25.7414 29.3087 25.7414 22.521 21.5777 18.3573L17.891 14.6707L20.2982 12.2635L23.9848 15.9502C29.4714 21.4367 29.4714 30.3931 23.9848 35.8797L23.9414 35.9231C21.209 38.6555 17.6307 40 14.0526 40Z" fill="var(--fill-0, #6D09F9)"/>
<path id="Vector_15" d="M14.0531 32.8437C12.2098 32.8437 10.4748 32.128 9.17369 30.8269C6.46294 28.1161 6.46294 23.6922 9.17369 20.9814L11.5809 23.3886C10.193 24.7765 10.193 27.0318 11.5809 28.4198C12.2315 29.0703 13.1205 29.439 14.0531 29.439C14.9856 29.439 15.8531 29.0703 16.5253 28.4198C17.9132 27.0318 17.9132 24.7765 16.547 23.4102L18.9541 21.0031C21.6649 23.7139 21.6649 28.0944 18.9541 30.8052C17.6096 32.128 15.8747 32.8437 14.0531 32.8437Z" fill="var(--fill-0, #6D09F9)"/>
<path id="Vector_16" d="M15.2396 17.3125L12.832 19.72L16.5123 23.4001L18.9198 20.9927L15.2396 17.3125Z" fill="var(--fill-0, #6D09F9)"/>
<path id="Vector_17" d="M12.8329 17.3318L9.16797 20.9967L11.5755 23.4041L15.2403 19.7393L12.8329 17.3318Z" fill="var(--fill-0, #6D09F9)"/>
</g>
<defs>
<clipPath id="clip0_0_1006">
<rect width="185.778" height="40" fill="white"/>
</clipPath>
</defs>
</svg>
