<svg preserveAspectRatio="none" width="100%" height="100%" overflow="visible" style="display: block;" viewBox="0 0 16 16" fill="none" xmlns="http://www.w3.org/2000/svg">
<g id="routing-2">
<path id="Vector" d="M3.64667 6C4.93533 6 5.98 4.95533 5.98 3.66667C5.98 2.378 4.93533 1.33333 3.64667 1.33333C2.358 1.33333 1.31333 2.378 1.31333 3.66667C1.31333 4.95533 2.358 6 3.64667 6Z" stroke="var(--stroke-0, #6D09F9)"/>
<path id="Vector_2" d="M11.3133 10H13.3133C14.0467 10 14.6467 10.6 14.6467 11.3333V13.3333C14.6467 14.0667 14.0467 14.6667 13.3133 14.6667H11.3133C10.58 14.6667 9.98 14.0667 9.98 13.3333V11.3333C9.98 10.6 10.58 10 11.3133 10Z" stroke="var(--stroke-0, #6D09F9)"/>
<path id="Vector_3" d="M8 3.33333H9.78667C11.02 3.33333 11.5933 4.86 10.6667 5.67333L5.34 10.3333C4.41333 11.14 4.98667 12.6667 6.21333 12.6667H8" stroke="var(--stroke-0, #6D09F9)" stroke-linecap="round" stroke-linejoin="round"/>
<path id="Vector_4" d="M3.65748 3.66667H3.66518" stroke="var(--stroke-0, #6D09F9)" stroke-width="1.33333" stroke-linecap="round" stroke-linejoin="round"/>
<path id="Vector_5" d="M12.3241 12.3333H12.3318" stroke="var(--stroke-0, #6D09F9)" stroke-width="1.33333" stroke-linecap="round" stroke-linejoin="round"/>
<g id="Vector_6" opacity="0">
</g>
</g>
</svg>
