<svg preserveAspectRatio="none" width="100%" height="100%" overflow="visible" style="display: block;" viewBox="0 0 28 28" fill="none" xmlns="http://www.w3.org/2000/svg">
<g id="Layer_2">
<path id="Vector" d="M7.97243 6.19763L8.70642 7.54051C8.75725 7.63349 8.83368 7.70992 8.92666 7.76075L10.2695 8.49516C10.6537 8.70537 10.6537 9.25701 10.2695 9.46708L8.92666 10.2016C8.83369 10.2524 8.75725 10.3288 8.70642 10.4217L7.97201 11.7646C7.76194 12.1488 7.21016 12.1488 7.00009 11.7646L6.26568 10.4217C6.21492 10.3288 6.13858 10.2524 6.04572 10.2016L4.70284 9.46708C4.31864 9.25701 4.31864 8.70537 4.70284 8.49516L6.04572 7.76075C6.13869 7.70992 6.21513 7.63349 6.26596 7.54051L7.00037 6.19763C7.21058 5.81343 7.76236 5.81343 7.97243 6.19763Z" fill="var(--fill-0, #6D09F9)"/>
<path id="Vector_2" d="M18.007 7.14883L19.7173 10.2759C19.8357 10.4923 20.0136 10.6701 20.2299 10.7886L23.357 12.4988C24.2513 12.9879 24.2513 14.2725 23.357 14.7618L20.2299 16.472C20.0135 16.5903 19.8356 16.7682 19.7173 16.9846L18.007 20.1116C17.5178 21.006 16.2333 21.006 15.7441 20.1116L14.0338 16.9846C13.9155 16.7682 13.7376 16.5903 13.5212 16.472L10.3941 14.7618C9.49978 14.2725 9.49978 12.9879 10.3941 12.4988L13.5212 10.7886C13.7375 10.6701 13.9154 10.4923 14.0338 10.2759L15.7441 7.14883C16.2333 6.25464 17.5178 6.25464 18.007 7.14883Z" fill="var(--fill-0, #6D09F9)"/>
<path id="Vector_3" d="M7.52984 16.2354L8.26425 17.5783C8.31508 17.6713 8.39152 17.7476 8.48449 17.7984L9.82737 18.533C10.2116 18.743 10.2116 19.2947 9.82737 19.5049L8.48449 20.2393C8.39151 20.2901 8.31508 20.3666 8.26425 20.4595L7.52984 21.8024C7.31977 22.1866 6.76799 22.1866 6.55792 21.8024L5.82295 20.4595C5.77212 20.3666 5.69569 20.2901 5.60271 20.2393L4.25983 19.5049C3.87563 19.2947 3.87563 18.743 4.25983 18.533L5.60271 17.7984C5.69568 17.7476 5.77212 17.6713 5.82295 17.5783L6.55736 16.2354C6.76799 15.8512 7.31977 15.8512 7.52984 16.2354Z" fill="var(--fill-0, #6D09F9)"/>
</g>
</svg>
